# xmcd CD database file
#
# Track frame offsets:
#	150
#	4677
#	22422
#	39067
#	55062
#	76160
#	77910
#	93103
#	112763
#	113750
#	132449
#	149253
#	152834
#	167688
#	185123
#	201545
#	215788
#	230493
#	245858
#	263247
#	279295
#	295107
#	309782
#	326568
#	345239
#
# Disc length: 4755 seconds
#
# Revision: 2
# Processed by: cddbd v1.5PL3 Copyright (c) Steve Scherf et al.
# Submitted via: CDex 1.50Beta7
#
DISCID=5e129119
DTITLE=Rednex - ...farm out ! and SEX&VIOLINS
DYEAR=2001
DGENRE=Country
TTITLE0=Intro-Fresh Pigs And More
TTITLE1=The Spirit Of The Hawk (F.A.F. Radio Mix)
TTITLE2=The Way I Mate
TTITLE3=The Devil Went Down To Georgia
TTITLE4=Hold Me For A While
TTITLE5=Boring...
TTITLE6=Where You Gonna Go
TTITLE7=Maggie Moonshine-Extended Version
TTITLE8=Animal In The Rain
TTITLE9=Ranger Jack
TTITLE10=Get The Truck Loaded
TTITLE11=Message From Our Sponsors
TTITLE12=Is He Alive
TTITLE13=McKenzie Brothers II (continued...)
TTITLE14=Bottleneck Bob 2000
TTITLE15=Cotton-Eye Joe
TTITLE16=Hitti' The Way
TTITLE17=Riding Alone
TTITLE18=Wish You Were Here
TTITLE19=Mary Lou
TTITLE20=Old Pop In An Oak
TTITLE21=Fat Sally Lee
TTITLE22=Shooter
TTITLE23=Roling Home
TTITLE24=Wild And Free
EXTD=The Best Songs from Rednex :)) YEAR: 2001
EXTT0=
EXTT1=
EXTT2=
EXTT3=
EXTT4=
EXTT5=
EXTT6=
EXTT7=
EXTT8=
EXTT9=
EXTT10=
EXTT11=
EXTT12=
EXTT13=
EXTT14=
EXTT15=
EXTT16=
EXTT17=
EXTT18=
EXTT19=
EXTT20=
EXTT21=
EXTT22=
EXTT23=
EXTT24=
PLAYORDER=
